<?xml version="1.0" encoding="utf-8"?>
<!-- Generator: Adobe Illustrator 26.0.3, SVG Export Plug-In . SVG Version: 6.00 Build 0)  -->
<svg version="1.1"
	 id="Layer_1" inkscape:version="0.92.4 (5da689c313, 2019-01-14)" xmlns:cc="http://creativecommons.org/ns#" xmlns:dc="http://purl.org/dc/elements/1.1/" xmlns:inkscape="http://www.inkscape.org/namespaces/inkscape" xmlns:ns="http://ns.adobe.com/SaveForWeb/1.0/" xmlns:rdf="http://www.w3.org/1999/02/22-rdf-syntax-ns#" xmlns:sodipodi="http://sodipodi.sourceforge.net/DTD/sodipodi-0.dtd" xmlns:svg="http://www.w3.org/2000/svg"
	 xmlns="http://www.w3.org/2000/svg" xmlns:xlink="http://www.w3.org/1999/xlink" x="0px" y="0px" viewBox="0 0 320 312.5"
	 enable-background="new 0 0 320 312.5" xml:space="preserve">
<g>
	<path fill="#231F53" d="M48.828,0h214.844C290.639,0,312.5,21.861,312.5,48.828v214.844c0,26.967-21.861,48.828-48.828,48.828
		H48.828C21.861,312.5,0,290.639,0,263.672V48.828C0,21.861,21.861,0,48.828,0L48.828,0z"/>
	<path fill="#A19DCD" d="M102.576,138.916c6.567,22.547,10.889,37.901,12.964,46.062c2.069-8.147,6.389-23.502,12.962-46.062l0,0
		c7.946-26.831,12.371-41.862,13.274-45.093v-0.039l0.012-0.039c0.206-0.666,0.612-1.252,1.163-1.679
		c0.571-0.419,1.262-0.638,1.97-0.625h29.883c0.672-0.019,1.332,0.174,1.889,0.552c0.579,0.421,0.974,1.05,1.101,1.755l0.024,0.127
		l5.276,126.431c0.136,0.899-0.149,1.811-0.774,2.471c-0.664,0.606-1.544,0.921-2.441,0.874h-21.484
		c-0.821,0.034-1.624-0.234-2.261-0.752c-0.632-0.576-0.981-1.399-0.955-2.254c-0.854-43.284-1.227-75.618-1.118-97.002
		c-4.416,16.276-13.311,48.747-26.684,97.412l-0.029,0.109l-0.044,0.105c-0.28,0.692-0.749,1.291-1.352,1.729
		c-0.624,0.428-1.366,0.652-2.122,0.639h-16.601c-0.757,0.012-1.498-0.211-2.122-0.639c-0.604-0.438-1.073-1.037-1.353-1.729
		l-0.044-0.105l-0.029-0.109c-13.371-48.666-22.266-81.136-26.685-97.412c0.111,21.377-0.262,53.711-1.118,97.002
		c0.026,0.854-0.323,1.677-0.954,2.254c-0.637,0.518-1.441,0.786-2.261,0.752H51.177c-0.898,0.046-1.777-0.268-2.441-0.874
		c-0.625-0.66-0.911-1.571-0.774-2.471l5.286-126.433l0.024-0.127c0.127-0.705,0.521-1.334,1.101-1.755
		c0.556-0.378,1.217-0.571,1.89-0.552h29.883c0.708-0.013,1.399,0.206,1.97,0.625c0.551,0.427,0.957,1.014,1.162,1.679l0.012,0.039
		v0.039c0.907,3.239,5.331,18.27,13.274,45.093L102.576,138.916L102.576,138.916z"/>
	<path fill-rule="evenodd" clip-rule="evenodd" fill="#A19DCD" d="M218.831,161.943c0.548-4.818,2.312-9.417,5.127-13.366
		c2.801-3.748,7.291-5.846,11.963-5.589c5.461,0,9.096,1.792,11.316,5.127c2.427,3.659,3.688,7.968,3.618,12.359
		c0,0.515,0,0.94-0.027,1.284c-0.415,0.034-0.933,0.063-1.558,0.09c-1.562,0.064-3.733,0.095-6.523,0.095H218.831L218.831,161.943z
		 M267.456,220.181l0.2-0.092l0.171-0.142c1.113-0.871,1.764-2.203,1.768-3.616v-14.258c0.006-0.375-0.042-0.749-0.144-1.111
		c-0.141-0.506-0.454-0.946-0.886-1.242c-0.484-0.318-1.079-0.423-1.643-0.288c-0.331,0.079-0.648,0.212-0.935,0.396
		c-6.8,2.842-14.116,4.24-21.484,4.106c-8.836,0-15.164-2.329-19.304-6.709c-4.156-4.666-6.474-10.685-6.521-16.934h34.026
		c6.731,0.153,13.466-0.114,20.164-0.798c1.533-0.161,2.754-1.356,2.947-2.886c0.659-3.843,0.931-7.743,0.811-11.641
		c0.183-10.518-3.331-20.767-9.929-28.96c-6.648-8.442-16.765-12.539-30.005-12.539c-13.987,0-25.146,5.003-33.316,15.066
		c-8.088,9.973-12.087,22.339-12.087,36.978c0,14.114,3.801,26.021,11.496,35.606l0.017,0.019
		c7.967,9.617,20.301,14.27,36.621,14.27C249.032,225.684,258.591,223.903,267.456,220.181L267.456,220.181z"/>
</g>
</svg>
