<?xml version="1.0" encoding="utf-8"?>
<!-- Generator: Adobe Illustrator 26.0.3, SVG Export Plug-In . SVG Version: 6.00 Build 0)  -->
<svg version="1.1"
	 id="Layer_1" inkscape:version="0.92.4 (5da689c313, 2019-01-14)" xmlns:cc="http://creativecommons.org/ns#" xmlns:dc="http://purl.org/dc/elements/1.1/" xmlns:inkscape="http://www.inkscape.org/namespaces/inkscape" xmlns:ns="http://ns.adobe.com/SaveForWeb/1.0/" xmlns:rdf="http://www.w3.org/1999/02/22-rdf-syntax-ns#" xmlns:sodipodi="http://sodipodi.sourceforge.net/DTD/sodipodi-0.dtd" xmlns:svg="http://www.w3.org/2000/svg"
	 xmlns="http://www.w3.org/2000/svg" xmlns:xlink="http://www.w3.org/1999/xlink" x="0px" y="0px" viewBox="0 0 320 312.5"
	 enable-background="new 0 0 320 312.5" xml:space="preserve">
<g id="Layer_2_1_-8" transform="matrix(0.41666667,0,0,0.41666667,55,0)">
	<g id="Surfaces">
		<g id="Video_Audio_Surface">
			<g id="Outline_no_shadow-3">
				<path id="path2194" inkscape:connector-curvature="0" fill="#00005B" d="M4.282,0.766h495.776
					C575.23,0.766,636,61.541,636,136.706v476.587c0,75.167-60.769,135.94-135.941,135.94H4.282
					c-75.166,0-135.94-60.773-135.94-135.94V136.706C-131.657,61.541-70.883,0.766,4.282,0.766z"/>
			</g>
		</g>
	</g>
	<g id="Outlined_Mnemonics_Logos">
		<g id="Ae">
			<path id="path2199" inkscape:connector-curvature="0" fill="#9999FF" d="M176.683,448.569H57.697l-24.308,75.482
				c-0.638,2.879-3.195,4.798-6.074,4.482h-60.136c-3.521,0-4.481-1.919-3.521-5.758L66.654,227.546c0.96-3.2,1.919-6.079,3.2-9.917
				c1.277-6.716,1.919-13.754,1.919-20.792c-0.316-1.597,0.96-3.195,2.563-3.516c0.316,0,0.632,0,0.96,0h81.882
				c2.236,0,3.838,0.96,4.155,2.557l116.75,327.857c0.96,3.516,0,5.114-3.2,5.114H208.03c-2.235,0.321-4.476-1.276-5.114-3.516
				L176.683,448.569z M76.253,384.911h81.24c-1.919-6.716-4.477-14.709-7.354-23.028c-2.879-8.635-5.757-17.909-8.636-27.503
				c-3.2-9.921-6.078-19.516-9.277-29.427c-3.195-9.916-6.074-19.194-8.635-28.468c-2.563-8.956-4.798-17.275-7.038-24.952h-0.638
				c-2.879,13.754-6.4,27.508-10.875,41.264c-4.798,15.351-9.595,31.346-14.714,47.34C86.165,356.448,81.051,371.478,76.253,384.911
				L76.253,384.911z"/>
			<path id="path2201" inkscape:connector-curvature="0" fill="#9999FF" d="M467.758,419.142H366.359
				c1.281,9.911,4.481,19.832,9.917,28.468c5.756,8.635,13.754,15.351,23.354,19.189c12.79,5.435,26.865,8.314,40.936,7.997
				c11.197-0.321,22.394-1.281,33.265-3.521c9.917-1.276,19.512-3.837,28.468-7.354c1.598-1.281,2.557-0.642,2.557,2.557v48.938
				c0,1.281-0.316,2.557-0.638,3.838c-0.637,0.96-1.281,1.602-2.24,2.24c-10.233,4.476-20.787,7.676-31.984,9.595
				c-15.035,2.879-30.066,4.159-45.417,3.838c-24.313,0-44.78-3.838-61.413-11.193c-15.678-6.716-29.428-17.275-40.303-30.392
				c-10.238-12.473-17.592-26.544-22.068-41.896c-4.481-15.035-6.717-30.708-6.717-46.703c0-17.27,2.552-34.225,7.993-50.857
				c5.119-15.99,13.117-30.704,23.992-43.82c10.554-12.795,23.67-23.028,38.701-30.382c15.035-7.359,32.949-9.921,53.415-9.921
				c16.954-0.317,33.903,2.878,49.582,9.921c13.111,5.757,24.625,14.393,33.582,25.584c8.314,10.876,15.035,23.028,19.194,36.466
				c4.155,12.795,6.074,25.906,6.074,39.022c0,7.676-0.317,14.393-0.638,20.471c-0.638,6.078-0.96,10.554-1.281,13.432
				c-0.317,2.24-2.235,4.159-4.477,4.159c-1.918,0-5.435,0.322-10.558,0.638c-5.114,0.643-11.193,0.96-18.547,0.96
				C483.748,420.417,476.072,419.142,467.758,419.142L467.758,419.142z M366.359,372.438h67.49c8.319,0,14.393,0,18.231-0.316
				c2.561-0.321,5.124-0.96,7.359-2.561v-3.196c0-4.158-0.643-7.997-1.919-11.835c-5.757-17.914-22.711-30.07-41.58-29.428
				c-17.596-0.96-34.224,8.319-42.543,24.309C369.559,356.769,367.319,364.446,366.359,372.438z"/>
		</g>
	</g>
</g>
</svg>
